<svg width="16.000000" height="15.000000" viewBox="0 0 16 15" fill="none" xmlns="http://www.w3.org/2000/svg" xmlns:xlink="http://www.w3.org/1999/xlink">
	<desc>
			Created with Pixso.
	</desc>
	<defs/>
	<path d="M15 2L13 2L13 0L12 0L12 2L4 2L4 0L3 0L3 2L1 2C0.400024 2 0 2.3999 0 3L0 14C0 14.5 0.400024 15 1 15L15 15C15.5 15 16 14.5 16 14L16 3C16 2.3999 15.5 2 15 2ZM1 6L1 3L3 3L3 5L4 5L4 3L12 3L12 5L13 5L13 3L15 3L15 6L1 6ZM15 14L1 14L1 7L15 7L15 14ZM3.5 10C3.80005 10 4 9.80005 4 9.5C4 9.19995 3.80005 9 3.5 9C3.19995 9 3 9.19995 3 9.5C3 9.80005 3.19995 10 3.5 10ZM5.75 10C6.05005 10 6.25 9.80005 6.25 9.5C6.25 9.19995 6.05005 9 5.75 9C5.44995 9 5.25 9.19995 5.25 9.5C5.25 9.80005 5.44995 10 5.75 10ZM8 10C8.30005 10 8.5 9.80005 8.5 9.5C8.5 9.19995 8.30005 9 8 9C7.69995 9 7.5 9.19995 7.5 9.5C7.5 9.80005 7.69995 10 8 10ZM10.25 10C10.55 10 10.75 9.80005 10.75 9.5C10.75 9.19995 10.55 9 10.25 9C9.94995 9 9.75 9.19995 9.75 9.5C9.75 9.80005 9.94995 10 10.25 10ZM12.5 10C12.8 10 13 9.80005 13 9.5C13 9.19995 12.8 9 12.5 9C12.2 9 12 9.19995 12 9.5C12 9.80005 12.2 10 12.5 10ZM3.5 11C3.19995 11 3 11.2 3 11.5C3 11.8 3.19995 12 3.5 12C3.80005 12 4 11.8 4 11.5C4 11.2 3.80005 11 3.5 11ZM5.75 11C5.44995 11 5.25 11.2 5.25 11.5C5.25 11.8 5.44995 12 5.75 12C6.05005 12 6.25 11.8 6.25 11.5C6.25 11.2 6.05005 11 5.75 11ZM8 11C7.69995 11 7.5 11.2 7.5 11.5C7.5 11.8 7.69995 12 8 12C8.30005 12 8.5 11.8 8.5 11.5C8.5 11.2 8.30005 11 8 11ZM10.25 11C9.94995 11 9.75 11.2 9.75 11.5C9.75 11.8 9.94995 12 10.25 12C10.55 12 10.75 11.8 10.75 11.5C10.75 11.2 10.55 11 10.25 11ZM12.5 11C12.2 11 12 11.2 12 11.5C12 11.8 12.2 12 12.5 12C12.8 12 13 11.8 13 11.5C13 11.2 12.8 11 12.5 11Z" fill="#000000" fill-opacity="1.000000" fill-rule="evenodd"/>
</svg>
