<svg width="18.000000" height="17.000000" viewBox="0 0 18 17" fill="none" xmlns="http://www.w3.org/2000/svg" xmlns:xlink="http://www.w3.org/1999/xlink">
	<desc>
			Created with Pixso.
	</desc>
	<defs/>
	<path id="Vector" d="M8.8999 17C8.6001 17 8.30005 16.8999 8.1001 16.6001C2.69995 10.5 1.3999 9.1001 1.1001 8.69995C0.399902 7.80005 0 6.6001 0 5.3999C0 2.3999 2.3999 0 5.5 0C6.80005 0 8 0.5 9 1.30005C10 0.5 11.3 0 12.5 0C15.5 0 18 2.3999 18 5.3999C18 6.69995 17.5 7.8999 16.7 8.80005L9.69995 16.7C9.5 16.8999 9.30005 17 8.8999 17ZM2.8999 7.5C3.19995 7.8999 6.3999 11.5 9 14.3999L15.2 7.3999C15.7 6.8999 15.8999 6.19995 15.8999 5.3999C15.8999 3.6001 14.3999 2.1001 12.6001 2.1001C11.6001 2.1001 10.6001 2.6001 9.8999 3.3999C9.6001 3.69995 9.30005 3.80005 9 3.80005C8.69995 3.80005 8.3999 3.6001 8.19995 3.3999C7.5 2.6001 6.5 2.1001 5.5 2.1001C3.69995 2.1001 2.19995 3.6001 2.19995 5.3999C2.1001 6.30005 2.5 7 2.8999 7.5Z" fill="#000000" fill-opacity="1.000000" fill-rule="nonzero"/>
</svg>
