<svg width="18.000000" height="18.000000" viewBox="0 0 18 18" fill="none" xmlns="http://www.w3.org/2000/svg" xmlns:xlink="http://www.w3.org/1999/xlink">
	<desc>
			Created with Pixso.
	</desc>
	<defs/>
	<path id="Vector" d="M18 16.5083L14.3 12.8286C15.3 11.5359 16 9.84521 16 7.95581C16 3.58008 12.3999 0 8 0C3.6001 0 0 3.67944 0 8.05518C0 12.4309 3.6001 16.011 8 16.011C9.80005 16.011 11.5 15.4143 12.8999 14.3206L16.6001 18L18 16.5083ZM8 14.0222C4.69995 14.0222 2 11.3369 2 8.05518C2 4.77344 4.69995 2.08838 8 2.08838C11.3 2.08838 14 4.77344 14 8.05518C14 11.3369 11.3 14.0222 8 14.0222Z" fill="#000000" fill-opacity="1.000000" fill-rule="nonzero"/>
</svg>
